<svg width="109" height="93" viewBox="0 0 109 93" fill="none" xmlns="http://www.w3.org/2000/svg">
<path d="M81.8927 31.0571C81.7853 31.0623 81.6779 31.0623 81.5704 31.0571H26.9852C25.2102 30.9702 23.8393 29.4561 23.9313 27.681C24.0132 26.0288 25.3329 24.7091 26.9852 24.6221H81.5704C83.3454 24.5351 84.8596 25.9009 84.9516 27.681C85.0437 29.4561 83.6728 30.9702 81.8978 31.0571H81.8927ZM71.5138 51.948H26.9852C25.2102 51.8559 23.8393 50.3418 23.9313 48.5668C24.0132 46.9146 25.3329 45.5948 26.9852 45.513H71.5138C73.2939 45.5999 74.6597 47.114 74.5676 48.8942C74.4858 50.5413 73.166 51.861 71.5138 51.948ZM100.911 19.5375C96.3894 14.0693 90.7421 10.0384 84.3327 7.12269C67.8768 -0.366093 50.8889 -1.30219 33.5634 3.49083C23.3022 6.33494 14.1969 11.2917 7.25549 19.5938C-2.39194 31.1492 -2.40217 45.6511 7.12761 57.2935C9.84895 60.6286 13.1381 63.3193 16.596 65.8616C18.2789 67.0893 21.2049 67.3553 21.4811 69.5548C21.742 71.6316 20.3967 73.8159 19.5987 75.908C17.394 81.7599 13.4041 86.3637 9.1993 90.8395C8.82588 91.2385 8.08416 91.6733 8.35016 92.2514C8.66731 92.9522 9.41414 92.4406 9.94613 92.3588C22.2842 90.2718 33.2156 85.1769 42.684 76.9874C43.6303 76.1638 44.505 75.7852 45.8401 75.9592C48.5052 76.3019 51.2112 76.3479 52.935 76.4554C59.6974 76.3889 65.4419 75.8517 71.0841 74.4962C82.3684 71.78 92.5376 67.0074 100.354 58.1273C110.661 46.4132 110.85 31.5584 100.916 19.5375" fill="white" fill-opacity="0.04"/>
</svg>
