<svg width="56" height="56" viewBox="0 0 56 56" fill="none" xmlns="http://www.w3.org/2000/svg">
<path fill-rule="evenodd" clip-rule="evenodd" d="M43 28C43 29.1046 42.1046 30 41 30L14.031 30C12.9264 30 12.031 29.1046 12.031 28C12.031 26.8954 12.9264 26 14.031 26L41 26C42.1046 26 43 26.8954 43 28Z" fill="#F9E001"/>
<path fill-rule="evenodd" clip-rule="evenodd" d="M27.8358 51.2961C40.7928 51.2961 51.2965 40.7924 51.2965 27.8354C51.2965 14.8784 40.7928 4.37463 27.8358 4.37463C14.8787 4.37463 4.375 14.8784 4.375 27.8354C4.375 40.7924 14.8787 51.2961 27.8358 51.2961ZM27.8358 55.2961C43.0019 55.2961 55.2965 43.0015 55.2965 27.8354C55.2965 12.6692 43.0019 0.374634 27.8358 0.374634C12.6696 0.374634 0.375 12.6692 0.375 27.8354C0.375 43.0015 12.6696 55.2961 27.8358 55.2961Z" fill="#F9E001"/>
</svg>
